<svg version="1.1" id="Layer_1" xmlns="http://www.w3.org/2000/svg" xmlns:xlink="http://www.w3.org/1999/xlink" x="0px"
     y="0px"
     width="100%" viewBox="0 0 2048 2048" xml:space="preserve">
	<g transform="translate(0.000000,2048.000000) scale(0.100000,-0.100000)"
       fill="#000000" stroke="none">
<path d="M809 20155 c-33 -18 -36 -25 -65 -164 -155 -736 -42 -1938 320 -3411
30 -124 81 -317 111 -430 31 -113 65 -241 77 -285 83 -331 383 -785 1117
-1695 733 -909 1925 -2214 2696 -2951 263 -252 459 -436 506 -475 204 -171
379 -332 490 -449 466 -493 1070 -1570 1588 -2828 531 -1290 931 -2682 1060
-3687 34 -260 43 -409 39 -647 -3 -209 -1 -230 16 -256 26 -39 57 -43 126 -18
51 19 1206 600 2489 1253 400 204 414 212 442 256 34 53 36 91 19 357 -104
1649 -698 3518 -1636 5147 -319 554 -622 993 -1033 1498 -141 174 -308 354
-419 451 -157 138 -396 331 -482 389 -193 129 -566 426 -945 749 -1438 1228
-3091 2924 -3623 3718 -34 51 -62 94 -62 97 0 7 -199 356 -222 390 -53 75
-123 147 -268 275 -849 747 -1562 1568 -1997 2295 -80 134 -193 350 -193 369
0 46 -101 81 -151 52z m241 -635 c400 -637 1004 -1347 1665 -1958 99 -92 222
-207 274 -257 147 -141 309 -352 381 -495 161 -321 583 -850 1264 -1580 399
-428 1313 -1329 1735 -1711 611 -552 1006 -891 1406 -1205 292 -229 292 -229
420 -321 391 -280 722 -621 1113 -1146 1322 -1773 2225 -4205 2318 -6242 l6
-140 -1283 -650 c-706 -357 -1303 -658 -1326 -667 -42 -17 -43 -17 -43 1 0 67
-23 398 -36 506 -193 1697 -1084 4225 -2067 5870 -120 200 -295 466 -384 582
-27 34 -88 115 -138 180 -116 152 -223 259 -530 528 -137 121 -279 247 -315
280 -36 34 -115 108 -176 166 -186 174 -854 848 -1099 1109 -582 620 -1119
1230 -1626 1845 -414 503 -779 981 -875 1145 -17 30 -62 105 -99 165 -131 213
-166 304 -279 725 -232 866 -381 1644 -452 2365 -30 310 -29 1039 3 1122 4 9
21 -12 47 -59 23 -40 66 -111 96 -158z"/>
        <path d="M4298 16470 c-31 -24 -43 -66 -29 -101 10 -27 302 -373 515 -609 605
-673 1488 -1548 2281 -2261 588 -530 1243 -1071 1590 -1314 71 -50 221 -168
330 -260 76 -64 323 -319 436 -450 677 -787 1328 -1886 1808 -3050 221 -538
412 -1112 551 -1660 180 -707 257 -1193 310 -1963 6 -99 15 -164 25 -182 19
-37 62 -60 111 -60 29 0 769 371 3563 1787 1939 983 3531 1791 3536 1795 6 4
46 34 90 67 160 118 236 272 214 430 -13 91 -64 192 -140 278 -58 65 -76 78
-184 131 -508 251 -2503 1237 -6945 3432 -6524 3224 -6741 3332 -6862 3386
-232 104 -524 260 -788 419 -187 113 -330 193 -360 200 -18 4 -34 0 -52 -15z
m1112 -785 c79 -35 1575 -773 7345 -3625 1260 -622 3244 -1602 4410 -2178
2338 -1155 2184 -1073 2242 -1198 21 -47 25 -66 20 -111 -10 -100 -73 -174
-220 -260 -86 -51 -355 -188 -4042 -2056 -2638 -1338 -2850 -1443 -2856 -1424
-3 12 -9 81 -13 152 -25 471 -133 1139 -281 1735 -349 1402 -964 2806 -1743
3976 -369 555 -799 1087 -1067 1323 -160 140 -382 318 -495 396 -147 101 -358
265 -655 510 -682 561 -1458 1277 -2260 2086 -352 355 -824 854 -847 893 -4 7
79 -31 185 -85 106 -54 230 -114 277 -134z"/>
        <path d="M1980 13980 c-38 -41 -43 -69 -26 -144 17 -72 129 -356 269 -681 424
-986 869 -1829 1337 -2534 188 -283 212 -324 328 -556 248 -497 485 -1120 593
-1560 20 -83 32 -167 39 -270 6 -82 24 -1633 40 -3445 16 -1812 32 -3320 36
-3350 22 -206 115 -383 239 -455 54 -32 168 -58 219 -50 70 11 138 36 231 86
50 26 752 383 1560 792 l1470 744 76 74 c116 113 164 232 161 399 -5 260 -75
775 -167 1217 -337 1634 -1117 3670 -1923 5018 -123 206 -279 442 -378 573
-44 57 -95 126 -115 152 -142 192 -196 249 -459 480 -275 242 -344 304 -475
424 -203 187 -1004 992 -1255 1261 -475 510 -850 930 -1210 1356 -227 268
-369 423 -434 470 -55 41 -117 41 -156 -1z m540 -745 c1013 -1169 2009 -2198
2785 -2877 299 -262 435 -409 637 -688 399 -552 864 -1436 1267 -2409 496
-1194 885 -2497 1045 -3501 40 -245 55 -390 68 -616 11 -194 10 -216 -6 -257
-22 -57 -78 -122 -147 -168 -30 -20 -718 -373 -1529 -784 -811 -412 -1492
-757 -1512 -767 -89 -47 -192 -30 -245 39 -57 74 -74 151 -84 368 -5 110 -15
952 -24 1870 -40 4374 -45 4797 -60 4905 -50 384 -339 1189 -649 1808 -117
235 -185 352 -289 501 -95 134 -304 467 -429 681 -320 548 -672 1260 -970
1960 -87 204 -86 203 -52 160 16 -19 103 -120 194 -225z"/>
</g>
    <path fill="#1AFFC4" opacity="1.000000" stroke="none"
          d="
M90.371414,175.589157
	C88.008354,141.568771 87.047226,108.034889 91.723244,73.359764
	C97.099403,82.148941 101.782555,89.917137 106.573219,97.618454
	C132.081573,138.624756 161.922958,176.345734 193.868210,212.455826
	C225.485916,248.195648 259.596069,281.425171 294.917236,313.490021
	C312.997437,329.903381 328.235870,348.685394 339.473145,370.735016
	C351.635162,394.599274 368.504272,415.389740 385.364288,436.045837
	C434.219147,495.900604 487.708466,551.488281 542.473999,605.878967
	C597.352417,660.381775 653.728027,713.313416 712.875610,763.148987
	C748.387085,793.069824 784.581421,822.288269 821.775696,850.072998
	C857.649536,876.871277 888.385132,908.389221 915.887939,943.324768
	C990.582947,1038.205933 1046.726440,1143.476562 1089.885864,1255.911377
	C1118.722900,1331.034912 1140.416138,1408.152954 1153.345215,1487.654297
	C1159.291016,1524.215698 1162.849854,1561.005981 1164.295410,1598.015747
	C1164.424683,1601.325684 1163.437134,1603.003540 1160.441772,1604.517578
	C1076.223389,1647.086792 992.062683,1689.769653 907.869629,1732.388916
	C905.128357,1733.776489 902.147522,1734.690552 898.738159,1736.038696
	C898.301086,1726.073853 898.133484,1716.786987 897.448547,1707.538330
	C893.449280,1653.539917 883.266113,1600.560181 869.918213,1548.209473
	C832.915771,1403.085449 780.515015,1263.817261 708.849548,1132.147095
	C693.119080,1103.245605 675.084900,1075.533936 657.058533,1047.962891
	C636.148315,1015.981140 609.214172,989.448608 580.340393,964.436157
	C551.162781,939.160339 522.927917,912.649231 495.837128,885.145569
	C453.985046,842.655823 412.633911,799.607300 372.603027,755.407532
	C333.362579,712.080566 295.457184,667.501404 258.071899,622.551941
	C232.312683,591.580872 207.919968,559.427673 183.874710,527.090210
	C162.167542,497.897278 146.692764,465.686646 137.768341,429.968323
	C124.613495,377.318573 111.205193,324.741425 102.603409,271.142273
	C97.542343,239.605957 94.414986,207.759308 90.371414,175.589157
z"/>
    <path fill="#18FFEE" opacity="1.000000" stroke="none"
          d="
M496.216125,457.067352
	C499.749084,459.150909 503.161407,461.480469 506.833130,463.281067
	C560.458984,489.578949 614.208374,515.626038 667.757507,542.078796
	C1086.225220,748.798035 1504.663086,955.577576 1923.022583,1162.515625
	C1928.641602,1165.294922 1933.937866,1169.690674 1937.972656,1174.513550
	C1947.216431,1185.562256 1946.627930,1197.947754 1935.810181,1207.363892
	C1928.252319,1213.942749 1919.486450,1219.489014 1910.522217,1224.044189
	C1738.433350,1311.492676 1566.234985,1398.725830 1394.059326,1486.003418
	C1341.812134,1512.488037 1289.565186,1538.972900 1237.316162,1565.453735
	C1235.690918,1566.277466 1234.042969,1567.056519 1231.716431,1568.193237
	C1231.391724,1564.078979 1231.026123,1560.365845 1230.816040,1556.644043
	C1228.133057,1509.129883 1221.345459,1462.171021 1211.316772,1415.687378
	C1179.336914,1267.457031 1122.574219,1129.294922 1042.155518,1000.815979
	C1012.037781,952.699036 978.214661,907.290771 940.105225,865.214905
	C921.147522,844.284058 898.421509,827.474548 876.094971,810.316040
	C851.283813,791.248047 825.990234,772.749939 801.937988,752.762695
	C710.969788,677.168945 625.423096,595.737061 543.559509,510.414856
	C528.217346,494.424500 513.327820,477.999390 498.273956,461.733704
	C497.194580,460.567444 496.481995,459.061737 495.878784,457.433411
	C496.158722,457.152985 496.216125,457.067352 496.216125,457.067352
z"/>
    <path fill="#1DFF6F" opacity="1.000000" stroke="none"
          d="
M255.617157,728.383911
	C313.351990,795.074646 372.797821,859.706299 434.877319,921.877136
	C456.415924,943.447510 478.488312,964.501282 500.753815,985.323914
	C517.405090,1000.896118 535.025757,1015.429504 551.735779,1030.941528
	C578.465393,1055.754639 599.020264,1085.525391 618.246582,1116.220337
	C666.434143,1193.151611 703.841248,1275.374268 736.859802,1359.692505
	C767.617737,1438.237915 793.316406,1518.405396 812.377197,1600.620972
	C822.242981,1643.175293 830.284546,1686.060425 833.396179,1729.722656
	C833.964111,1737.691284 834.246399,1745.699463 834.203186,1753.686890
	C834.165894,1760.574341 830.607483,1766.234619 825.781616,1770.708252
	C821.550903,1774.630005 816.879211,1778.404053 811.770996,1781.002319
	C715.762024,1829.840088 619.661804,1878.498535 523.566772,1927.167114
	C518.695190,1929.634399 513.897949,1932.539429 508.718567,1934.046875
	C498.275879,1937.086182 491.021271,1933.473633 486.170959,1923.653687
	C481.714142,1914.630249 480.492798,1904.856689 480.353760,1894.983887
	C479.849182,1859.164551 479.474976,1823.343018 479.139709,1787.521484
	C477.400421,1601.698853 475.737518,1415.875488 473.897980,1230.053833
	C473.693390,1209.384033 468.169983,1189.567871 462.107544,1169.975342
	C445.038300,1114.810425 423.623138,1061.404053 395.727966,1010.791260
	C387.472748,995.812988 377.326721,981.872437 367.971191,967.505798
	C328.719971,907.230835 295.259644,843.795593 265.179779,778.544800
	C254.241425,754.816650 244.045349,730.746155 233.528809,706.823853
	C232.876999,705.341125 232.384827,703.788269 232.650391,701.686157
	C240.227524,710.496826 247.804657,719.307434 255.617157,728.383911
z"/>
</svg>
